{"asset":{"generator":"3D Builder","version":"2.0"},"scene":0,"scenes":[{"nodes":[0,1]}],"nodes":[{"mesh":0,"matrix":[1,0,0,0,0,-1.1920928955078125E-7,-0.99999988079071045,0,0,0.99999988079071045,-1.1920928955078125E-7,0,3.6334991904141134E-8,0.13330605626106262,-0.25599998235702515,1]},{"mesh":1,"matrix":[1,0,0,0,0,-1.1920928955078125E-7,-0.99999988079071045,0,0,0.99999988079071045,-1.1920928955078125E-7,0,3.6334991904141134E-8,0.13330605626106262,-0.25599998235702515,1]}],"meshes":[{"primitives":[{"attributes":{"POSITION":0,"TEXCOORD_0":1},"mode":4,"indices":2,"material":0}]},{"primitives":[{"attributes":{"POSITION":3,"TEXCOORD_0":4},"mode":4,"indices":5,"material":1}]}],"materials":[{"pbrMetallicRoughness":{"baseColorFactor":[1,1,1,1],"metallicFactor":1,"roughnessFactor":1,"baseColorTexture":{"index":0,"texCoord":0},"metallicRoughnessTexture":{"index":1,"texCoord":0}},"alphaMode":"OPAQUE"},{"pbrMetallicRoughness":{"baseColorFactor":[1,1,1,1],"metallicFactor":1,"roughnessFactor":1,"baseColorTexture":{"index":2,"texCoord":0},"metallicRoughnessTexture":{"index":3,"texCoord":0}},"alphaMode":"OPAQUE"}],"textures":[{"source":0,"sampler":0},{"source":1,"sampler":0},{"source":2,"sampler":0},{"source":3,"sampler":0}],"images":[{"uri":"texture_0_6195987693227547908.png"},{"uri":"texture_1_17319628118832143767.png"},{"uri":"texture_4_11563080508590297124.png"},{"uri":"texture_1_17650290037541193437.png"}],"samplers":[{"magFilter":9729,"wrapS":10497,"wrapT":10497}],"accessors":[{"bufferView":0,"byteOffset":0,"count":278,"componentType":5126,"type":"VEC3","min":[-0.22316679358482361,-0.37950661778450012,-0.1333061009645462],"max":[0.22316673398017883,-0.1324932873249054,0.10513164103031158]},{"bufferView":1,"byteOffset":0,"count":278,"componentType":5126,"type":"VEC2"},{"bufferView":2,"byteOffset":0,"count":792,"componentType":5125,"type":"SCALAR"},{"bufferView":3,"byteOffset":0,"count":92,"componentType":5126,"type":"VEC3","min":[-0.25600004196166992,-0.37569123506546021,0.10264705121517181],"max":[0.25599998235702515,-0.13630872964859009,0.13330554962158203]},{"bufferView":4,"byteOffset":0,"count":92,"componentType":5126,"type":"VEC2"},{"bufferView":5,"byteOffset":0,"count":288,"componentType":5125,"type":"SCALAR"}],"bufferViews":[{"buffer":0,"byteOffset":0,"byteLength":3336,"byteStride":12,"target":34962},{"buffer":0,"byteOffset":3336,"byteLength":2224,"byteStride":8,"target":34962},{"buffer":0,"byteOffset":5560,"byteLength":3168,"target":34963},{"buffer":0,"byteOffset":8728,"byteLength":1104,"byteStride":12,"target":34962},{"buffer":0,"byteOffset":9832,"byteLength":736,"byteStride":8,"target":34962},{"buffer":0,"byteOffset":10568,"byteLength":1152,"target":34963}],"buffers":[{"byteLength":11720,"uri":"mesh_table_a_01.bin"}]}